<svg id="Layer_1" data-name="Layer 1" xmlns="http://www.w3.org/2000/svg" viewBox="0 0 201 201"><defs><style>.cls-1{fill:#6faac3;}.cls-2{fill:#e03d3e;}.cls-3{fill:#edbe00;}.cls-4{fill:#fff;}</style></defs><path class="cls-1" d="M147.36,72.27,182.13,52.2a5,5,0,0,0,1.7-7.05A100.12,100.12,0,0,0,124.76,3.47a5,5,0,0,0-6.23,4.25L113.76,48a5,5,0,0,0,3.31,5.3,50,50,0,0,1,23.79,17.62A5,5,0,0,0,147.36,72.27Z"/><path class="cls-2" d="M185.66,59.4,150.52,79.69a5,5,0,0,0-2.29,5.76,50.15,50.15,0,0,1,0,30.06,5,5,0,0,0,2.29,5.76l35.14,20.29a5,5,0,0,0,7.13-2.41,100.33,100.33,0,0,0,0-77.33A5,5,0,0,0,185.66,59.4Z"/><path class="cls-3" d="M113.88,153l4.77,40.3a5,5,0,0,0,6.23,4.25,100.13,100.13,0,0,0,59-41.69,5,5,0,0,0-1.7-7L147.39,128.7a5,5,0,0,0-6.5,1.35,50.13,50.13,0,0,1-23.72,17.61A5,5,0,0,0,113.88,153Z"/><path class="cls-4" d="M100.54,150.5a50,50,0,0,1,0-100h.33a5,5,0,0,0,5.06-4.41l4.72-39.87A5,5,0,0,0,106,.66c-1.82-.1-3.65-.16-5.49-.16a100,100,0,0,0,0,200c1.89,0,3.75-.05,5.61-.15a5,5,0,0,0,4.62-5.58l-4.72-39.86A5,5,0,0,0,101,150.5Z"/><path class="cls-4" d="M127.92,97l-38-22a5,5,0,0,0-7.5,4.33v43.93a5,5,0,0,0,7.5,4.33l38.05-22A5,5,0,0,0,127.92,97Z"/></svg>