<svg id="Layer_1" data-name="Layer 1" xmlns="http://www.w3.org/2000/svg" viewBox="0 0 567.49 229.91"><defs><style>.cls-1{fill:#fff;}.cls-2{fill:#e03d3e;}.cls-3{fill:#edbe00;}.cls-4{fill:#6faac3;}</style></defs><path class="cls-1" d="M551.49,0H383.55a16,16,0,0,0-16,16V88.92a16,16,0,0,0,16,16h5.89l-21.24,37.4a5.58,5.58,0,0,0,7.76,7.39l77.48-44.79h98.05a16,16,0,0,0,16-16V16A16,16,0,0,0,551.49,0ZM461,83.32H446.39a2.61,2.61,0,0,1-2.1-1.07L432,65.19a1.3,1.3,0,0,0-2.09,0L417.15,82.28a2.61,2.61,0,0,1-2.08,1H401.3a2.59,2.59,0,0,1-2.05-4.16L420.19,52a1.28,1.28,0,0,0,0-1.56L400,23.69a2.59,2.59,0,0,1,2.07-4.15h14.41a2.58,2.58,0,0,1,2.09,1.06L430.4,36.75a1.3,1.3,0,0,0,2.08,0l12.17-16.19a2.56,2.56,0,0,1,2.06-1H460a2.59,2.59,0,0,1,2.05,4.16L442,49.93a1.29,1.29,0,0,0,0,1.58l21.1,27.66A2.59,2.59,0,0,1,461,83.32Zm71.8-8.44q-3.52,4.77-10.76,7.63t-17.7,2.87a72,72,0,0,1-16.06-1.81,51.31,51.31,0,0,1-9.56-3.12A3.88,3.88,0,0,1,477,74.9l2.87-4.75a3.87,3.87,0,0,1,5-1.49A39.46,39.46,0,0,0,492,71.28,46.64,46.64,0,0,0,503.9,72.8q6.72,0,10.59-2.17a6.76,6.76,0,0,0,3.86-6.15q0-8-14.45-8h-4.29a3.88,3.88,0,0,1-3.88-3.88V48.3a3.88,3.88,0,0,1,1.21-2.81l12.33-11.7a1.3,1.3,0,0,0-.89-2.23H482.62a3.88,3.88,0,0,1-3.88-3.88V23.42a3.88,3.88,0,0,1,3.88-3.88h46.3a3.88,3.88,0,0,1,3.88,3.88v4.17a3.89,3.89,0,0,1-1.2,2.81L517.24,44.11a1.29,1.29,0,0,0,.66,2.2q8.31,1.61,13,5.92a15.92,15.92,0,0,1,5.41,12.25A17.1,17.1,0,0,1,532.8,74.88Z"/><path class="cls-2" d="M335.37,88.6l-35.14,20.28a5,5,0,0,0-2.29,5.76,50,50,0,0,1,0,30.07,5,5,0,0,0,2.29,5.75l35.15,20.29a5,5,0,0,0,7.12-2.41,100.21,100.21,0,0,0,0-77.33A5,5,0,0,0,335.37,88.6Z"/><path class="cls-3" d="M263.59,182.15l4.77,40.3a5,5,0,0,0,6.23,4.25,100.13,100.13,0,0,0,59-41.69,5,5,0,0,0-1.7-7L297.1,157.89a5,5,0,0,0-6.5,1.35,50.21,50.21,0,0,1-23.72,17.62A5,5,0,0,0,263.59,182.15Z"/><path class="cls-4" d="M297.08,101.47l34.77-20.08a5,5,0,0,0,1.69-7,100.12,100.12,0,0,0-59.07-41.68,5,5,0,0,0-6.23,4.26L263.47,77.2a5,5,0,0,0,3.31,5.3,50.12,50.12,0,0,1,23.8,17.62A5,5,0,0,0,297.08,101.47Z"/><path class="cls-1" d="M250.26,179.7a50,50,0,0,1,0-100h.32a5,5,0,0,0,5.06-4.41l4.73-39.86a5,5,0,0,0-4.63-5.58c-1.82-.1-3.64-.15-5.48-.15a100,100,0,0,0,0,200c1.88,0,3.75-.06,5.6-.16a5,5,0,0,0,4.62-5.58l-4.72-39.86a5,5,0,0,0-5.06-4.41Z"/><path class="cls-1" d="M100,179.91a50,50,0,1,1,37.37-83.2,5,5,0,0,0,8.26-1.14c5.78-12.17,13-23.75,20.17-35.38a5,5,0,0,0-1.12-6.5C147.33,39.82,123.58,29.91,100,29.91a100,100,0,0,0,0,200c23.69,0,47.12-9.68,64.46-23.62a5,5,0,0,0,1.11-6.48c-7-11.53-13.9-23.31-19.86-35.7a5,5,0,0,0-8.23-1.12A49.83,49.83,0,0,1,100,179.91Z"/><path class="cls-1" d="M277.63,126.15l-38-22a5,5,0,0,0-7.5,4.33v43.93a5,5,0,0,0,7.5,4.33l38-22A5,5,0,0,0,277.63,126.15Z"/></svg>