<svg xmlns="http://www.w3.org/2000/svg" viewBox="0 0 275 275"><defs><style>.cls-1{fill:#8c93a3;}.cls-1,.cls-10,.cls-11,.cls-2,.cls-3,.cls-4,.cls-5,.cls-6,.cls-7,.cls-9{fill-rule:evenodd;}.cls-2{fill:#fff;}.cls-3{fill:#7e7f83;}.cls-4{fill:#4f5050;}.cls-5{fill:#4c515a;}.cls-6,.cls-8{fill:#172629;}.cls-7{fill:#e8e6e5;}.cls-9{fill:#e02e33;}.cls-10{fill:#ecbc00;}.cls-11{fill:#6aa9c1;}</style></defs><g id="Layer_2" data-name="Layer 2"><path class="cls-1" d="M154.19,165.74,131.39,143s6.22-7.38,6.79-8.21,5.89-5.62,5.89-5.62l22.46,23.11S159.76,161.89,154.19,165.74Z"/><path class="cls-2" d="M162.61,155.58l-12.76-12.34-5.48.95c-1.24.15-1.33-.11-1.33-.11l4.77-2.82-7.5-7.25s2.76-3.3,3.41-3.38,8.41,6.72,10.54,8.77,9.88,8.14,10.85,10.07.93,3.89-2.5,6.11Zm-22.89-5.87,7.68-2-1.11-1.07-7.57,2.3s1.25.82,1,.77Zm3.67,3.45,9-.74L149,149.11l-7.88,1.52S143.64,153.3,143.39,153.16Z"/><path class="cls-3" d="M173.06,198.09c6-4.52,17-14.08,18.45-15.32l.45-1,1,.81c.61.51,1.25,1,1.85,1.47l.26.18c.47-2.93,1.53-9.52,1.88-11.43a4.2,4.2,0,0,0-.27-2,11.67,11.67,0,0,0-1-2.16l1.51-1.13c.56.6,1.05,1.18,1.47,1.72a21,21,0,0,1,1.26,1.8l.11.28a13.13,13.13,0,0,1,.32,2,21.85,21.85,0,0,1,.08,2.25c-.06,4.47-2.26,12.39-2.26,12.41l-.21.38c-.82.94-1.83,2.12-2.9,3.38-5.28,6.21-12.24,14.4-15.32,13.3a15,15,0,0,1-4.3-2.4,8.79,8.79,0,0,1-2.64-3.34l-.27-.67.58-.44Zm24.6-42.86a5.3,5.3,0,0,1-2.11.19c-5.83-.52-5.85-2.09-5.87-3.71,0-.77,0-1.56-4.2-2a4.56,4.56,0,0,0-1.58.12,6.65,6.65,0,0,0-1.7.7l-.44.26-.46-.22-.05,0-.65-.32.14-.71a7.55,7.55,0,0,1,1.15-2.82,4.86,4.86,0,0,1,1.74-1.6,3.92,3.92,0,0,1,2.61-.36,6.39,6.39,0,0,1,2.37,1.06,20.42,20.42,0,0,0,6.42,2.43c2.92.75,5.37,1.38,5.95,3.45h0c0,.08.05.19.08.33h0a7.42,7.42,0,0,1-.19,4.36,4.9,4.9,0,0,1-3.4,3l-.23.06-.86-1.62a3.75,3.75,0,0,0,1.05-1.52,3.37,3.37,0,0,0,.22-1.05Zm-25,20.93c-6.66,5-14.35,10.75-17.08,8.85a6.63,6.63,0,0,1-2.38-3.1,10.91,10.91,0,0,1-.69-3.45l0-.72.68-.23a32.31,32.31,0,0,0,7.72-4.08,54.69,54.69,0,0,0,8-6.83c.47-.48.87-.92,1.22-1.29s.77-.86,1.17-1.33l.67-.78.72.73a21.27,21.27,0,0,0,2.23,2,17.87,17.87,0,0,0,1.5,1c1.17-2.37,4.3-8.65,4.86-9.83a1.36,1.36,0,0,0-.16-.91,8.85,8.85,0,0,0-1-1.72l1.24-1.38a17,17,0,0,1,1.84,1.25c.7.54,1.37,1.14,1.94,1.67l.35.33-.06.48c0,.34-.1.7-.16,1.07s-.15.72-.23,1.11c-1.13,4.81-5.83,12.39-5.85,12.41l-.28.28c-1.77,1.18-3.9,2.78-6.16,4.47Zm10.69,8.61c1.62-1.52,3.15-3,4.53-4.17l.23-.32s3.82-8.33,4.37-13.32c.07-.68.12-1.29.14-1.84s0-1.18,0-1.68l-.25-.6a11.64,11.64,0,0,0-1.32-1.2,14.16,14.16,0,0,0-1.59-1.08l-1.27,1.33a5.1,5.1,0,0,1,.57,1.17,3.73,3.73,0,0,1,.18,1.43c-.16,2-2.62,9.72-3.47,12.34a8.37,8.37,0,0,1-1.82-.92,8.59,8.59,0,0,1-1.76-1.56l-.55-.64-.7.47c-1.89,1.27-7.67,5.15-13,8.61-3.12,2-6.09,3.86-8,5l-.64.36.2.72a10,10,0,0,0,2.56,4.1,17.62,17.62,0,0,0,4.54,3.36c3.12,1.62,10.81-5.58,17.14-11.51ZM192.05,199c-2.06,2.21-4.14,4.41-5.83,6.08l-.66.66.64.67a9.71,9.71,0,0,0,2.38,1.77,12.83,12.83,0,0,0,3,1.18c2.92.74,9.5-7.35,13.85-12.69l1.27-1.56.2-.43s1.29-6.87,1.12-10.47a14.82,14.82,0,0,0-.16-1.67,10.25,10.25,0,0,0-.31-1.48l-.26-.43L205.56,179l-1.68-1.54-1.41-1.29-.18,1.89v.11l.15.6c.37.57.87,1.4,1.29,2.22a6.21,6.21,0,0,1,.73,2c.08,1.28-.43,6.19-.7,8.61l-.74-.45c-.63-.4-1.21-.81-1.67-1.15l-.7-.52-.57.64C198.65,191.76,195.37,195.41,192.05,199Z"/><path class="cls-4" d="M174.37,198.37s13.7-9.5,17.61-10.44,7.23,1.84,7.23,1.84L187.35,204.7s8.07-6.79,12.19-8.17a19.33,19.33,0,0,1,6.75-1.2s2.26-8.11,2-11.6-1.39-4.78-3.5-7-3.74-8.55-7.93-11.32a43.22,43.22,0,0,1-8.18-6.41,33.61,33.61,0,0,1-3.4-4.27A34.4,34.4,0,0,0,196,159.54c4,.8,3.93.09,5.44-3.39s-1.57-4.6-1.57-4.6-1.3,1.67-8.66-1.27-10.36,0-10.36,0a8,8,0,0,0,1.5,2,2.54,2.54,0,0,0-.55,0c-2.5.37-4.11,1.82-6.69,4.26s-6.87,7.1-8.26,8.54-12.25,11.55-12.25,11.55,13.65-5.9,18.22-6.85,6.57,1.64,6.57,1.64-4.39,5-5,5.64-12.4,8.83-12.4,8.83,16.89-7.7,20.27-7.65,7,3.16,7,3.16S172.77,194.25,174.37,198.37Z"/><path class="cls-2" d="M202.89,199.87s-6.8,8.07-16,4.16l6.1-10.09s-5.5,5.34-11.58,5.78-8.18-2.91-8.18-2.91L184,185s-9.7,7.27-15.47,6-7.87-4.94-7.87-4.94l14.54-11.25s-9.57,4.73-14.32,4.47a13.69,13.69,0,0,1-8-3.42s-1.59,6.12-.53,8.81,2.15,7.08,10.2,12.53,14.53,9.06,17.92,9.34,3.55-.23,6.29,1.42,5.67,5.15,8.33,2.4S201.32,207,202.89,199.87Z"/><path class="cls-3" d="M93.61,121.25c4.32-6.16,13.51-17.48,14.7-18.94l1-.48-.85-.94c-.53-.59-1.06-1.21-1.53-1.81-.06-.08-.13-.16-.19-.25,2.92-.57,9.46-1.84,11.36-2.26a4.27,4.27,0,0,1,2.05.2,13.11,13.11,0,0,1,2.2.94l1.07-1.54a21.87,21.87,0,0,0-3.61-2.61l-.28-.11a14.6,14.6,0,0,0-2-.25,21.21,21.21,0,0,0-2.26,0c-4.46.2-12.31,2.67-12.33,2.67l-.37.22c-.91.86-2,1.9-3.28,3-6,5.49-14,12.72-12.78,15.76a14.77,14.77,0,0,0,2.54,4.21,8.66,8.66,0,0,0,3.42,2.53l.68.25.42-.6Zm42-26a5.11,5.11,0,0,0-.12,2.11c.71,5.81,2.29,5.78,3.9,5.75.77,0,1.56,0,2.17,4.12a4.41,4.41,0,0,1-.07,1.59,6.29,6.29,0,0,1-.64,1.72l-.25.45.25.45,0,0,.34.64.71-.16a7.74,7.74,0,0,0,2.78-1.25,4.86,4.86,0,0,0,1.55-1.79,3.89,3.89,0,0,0,.26-2.62A6.25,6.25,0,0,0,145.4,104a20.13,20.13,0,0,1-2.65-6.33c-.84-2.89-1.55-5.32-3.64-5.83h0l-.34-.07h0a7.3,7.3,0,0,0-4.35.33,4.88,4.88,0,0,0-2.91,3.49,1.41,1.41,0,0,0,0,.24l1.65.8a3.84,3.84,0,0,1,1.47-1.1,3.37,3.37,0,0,1,1-.25Zm-20.09,25.7c-4.76,6.82-10.25,14.7-8.27,17.37a6.63,6.63,0,0,0,3.18,2.27,11.12,11.12,0,0,0,3.47.58l.72,0,3.67-.4c.72-2.38-1.44-5.36.36-8.15a54.17,54.17,0,0,1,6.56-8.18c.47-.48.88-.9,1.25-1.26s.84-.8,1.29-1.21l.76-.7-.76-.7a21.29,21.29,0,0,1-2-2.16c-.36-.45-.73-.94-1.08-1.46,2.33-1.26,8.51-4.59,9.66-5.19a1.38,1.38,0,0,1,.92.13,9.15,9.15,0,0,1,1.75.95l1.33-1.29a17,17,0,0,0-1.3-1.79c-.57-.68-1.19-1.33-1.74-1.88l-.34-.34-.47.07c-.35.06-.7.12-1.07.2l-1.1.27c-4.78,1.29-12.19,6.24-12.21,6.26l-.28.28c-1.12,1.81-2.64,4-4.26,6.31Zm-9-10.4c1.46-1.67,2.84-3.24,4-4.66l.31-.24s8.2-4.1,13.17-4.81c.68-.1,1.29-.16,1.83-.2s1.18-.06,1.69,0l.6.24a11.83,11.83,0,0,1,1.25,1.28,14.86,14.86,0,0,1,1.13,1.55L129.29,105a5.26,5.26,0,0,0-1.19-.54,3.73,3.73,0,0,0-1.43-.13c-2,.22-9.63,3-12.22,3.88a8,8,0,0,0,1,1.79,8.65,8.65,0,0,0,1.62,1.71l.66.53-.45.71c-1.21,1.93-4.9,7.84-8.17,13.32-1.9,3.18-3.66,6.21-4.68,8.19l-.34.66-.73-.18a10.13,10.13,0,0,1-4.18-2.42,18.16,18.16,0,0,1-3.51-4.42c-1.72-3.08,5.22-11,10.94-17.53Zm-14.5-8.23c-2.14,2.13-4.26,4.28-5.89,6l-.62.67-.7-.61A9.78,9.78,0,0,1,83,106.08a13.19,13.19,0,0,1-1.28-3c-.84-2.89,7-9.74,12.22-14.26l1.52-1.33.42-.21s6.83-1.51,10.43-1.47a16.52,16.52,0,0,1,1.68.1,11.47,11.47,0,0,1,1.48.26l.44.25,1.65,1.68,1.6,1.64,1.33,1.36-1.89.24h-.1l-.61-.12A24.78,24.78,0,0,0,109.66,90a6.19,6.19,0,0,0-2-.66c-1.29,0-6.18.64-8.58,1,.15.25.31.49.47.73.42.61.85,1.17,1.21,1.62l.54.68-.63.6C99.08,95.47,95.54,98.87,92.09,102.31Z"/><path class="cls-4" d="M93.29,120s9-14,9.85-17.95-2.09-7.17-2.09-7.17L86.53,107.2s6.52-8.3,7.76-12.46a19.48,19.48,0,0,0,1-6.78s8-2.54,11.52-2.38,4.82,1.23,7.15,3.26,8.68,3.46,11.58,7.56a43.86,43.86,0,0,0,6.68,8,35.16,35.16,0,0,0,4.38,3.26,35.12,35.12,0,0,1-5.21-10.56c-.93-4-.22-3.92,3.21-5.55s4.66,1.41,4.66,1.41-1.63,1.36,1.56,8.61.33,10.37.33,10.37a7.89,7.89,0,0,1-2.06-1.44,2.52,2.52,0,0,1,0,.55c-.29,2.51-1.68,4.17-4,6.83s-6.86,7.1-8.26,8.54-5.87,15.48-5.87,15.48c-13.62-1.36.18-16.69,1-21.29s-1.86-6.51-1.86-6.51-4.83,4.55-5.47,5.22S106.15,132,106.15,132s7.13-17.14,7-20.52-3.39-6.92-3.39-6.92S97.46,121.41,93.29,120Z"/><path class="cls-2" d="M90.84,91.5S83,98.57,87.22,107.64l9.88-6.43S92,106.88,91.71,113s3.18,8.07,3.18,8.07l11.49-11.19s-6.94,9.93-5.49,15.66,5.2,7.7,5.2,7.7l10.76-14.91s-4.61,9.93-4.19,14.66a12.31,12.31,0,0,0,3.68,7.59s-5.86,1.89-8.58.92-7.15-1.91-12.86-9.77-9.55-14.23-9.94-17.6.11-3.56-1.63-6.24-5.34-5.49-2.68-8.25S83.76,93.31,90.84,91.5Z"/><path class="cls-3" d="M197.69,208.36l34.61,32a26,26,0,0,0,8.81-5.49,14.08,14.08,0,0,0,3.68-8.46l-35.94-34.75s-4.4,10.24-11.16,16.72Zm-47.88-44.53s-3.52,5.27-3.23,8.23,5.11,3.52,7.73,2.27,10.86-7.15,14.49-10.26,8.49-9.43,9.24-13,.53-6.74-.68-7.12-6,.34-7.67,1.25-3.35,1-3.81,2.47.62,3.11.48,4.4-1.47,3.15-3.91,5.67-5.58,6.58-7.1,7-3.89-2.66-5.54-.95Zm-19.62-21.75,6.24-7,8.54-6.76-9.16-8.69a40.92,40.92,0,0,1-5.25,2.76s-5.32,7.14-7.06,11.81c-.15.41-.28.8-.39,1.19,4.46,4.24,7,6.66,7.08,6.66Z"/><path class="cls-4" d="M197.69,208.36l34.61,32a26,26,0,0,0,8.81-5.49,11.94,11.94,0,0,0,1.78-2.37c-2.87-1.58-15.21-5.34-41.18-30.67-1.76,2.73-1.51,4.14-4,6.55ZM158.16,162a4.61,4.61,0,0,1-3,1.47,12.78,12.78,0,0,0,3-1.47Zm-6,1.9c-.43-.1-1.12-.8-1.75-.25-1.54,1.36-3.27,5.17-3.82,6.94-.79,2.49.89,3.93,2.55,4.63s5.2-1.28,10.19-4.57,13.15-13.42,15.74-17.58,1.6-8.92.21-9.72-4.57,1.17-6.38,2.12a10.46,10.46,0,0,0-4,3.18c-.81,1.21,1.1,5.58,4.26,2.5A9.76,9.76,0,0,0,172,144s3.21.41,4,1.68,1.39,1.17-2.89,8.2-15.65,18-20.62,16.66-.29-6.59-.29-6.59Zm-15.64-28.88-8.78-8.56a44.24,44.24,0,0,0-4.23,7.74c-.15.41-.28.8-.39,1.19,4.46,4.24,7,6.66,7.08,6.66l6.24-7,.08-.06Z"/><path class="cls-5" d="M155.17,163.5a12.78,12.78,0,0,0,3-1.47,8.83,8.83,0,0,0,1.6-2.25s-3-4.53-4.74-5.6-10.93-9.56-10.93-9.56c-1.78-.41-1.59-2.26-2.35-3.43a40.24,40.24,0,0,0-3.61-3.92l-4,3.53s4.43.52,12.1,9.25,7.38,13.22,7.38,13.22A4,4,0,0,0,155.17,163.5Z"/><path class="cls-2" d="M244.7,227.22a7.7,7.7,0,0,0,.09-.83l-35.94-34.75s-1,2.31-2.76,5.44l9.63,9.25a30.08,30.08,0,0,0-4.89.32c-3.71.66-6.94,1.31-7,3.6a38.19,38.19,0,0,1,16.31.31l7.28,7a31.12,31.12,0,0,0-5,.31c-3.71.66-6.94,1.32-7,3.6a38.22,38.22,0,0,1,16.41.34l2.75,2.64c5.94,5.74,9.89,2.91,9.89,2.91l.24-.13Zm-94.37-57.51s4.46-.08,11.27-6,10.65-11.44,9.31-15.25c0,0-4.77,7.1-8.33,10.56s-8.91,7.27-12.25,10.73Zm-11.1-36.82-9.58-9.2c.55-.79.91-1.27.91-1.27a40.92,40.92,0,0,0,5.25-2.76l9.16,8.69Z"/><path class="cls-6" d="M153.63,175.1s-1.31,6.52,2.47,9.13c3,2.05,15.51-8.87,22.18-13.32,0,0,4.63-7.47,5.72-12.13s.05-6.7.05-6.7l5.58,6.17s-5.69,12.68-7.86,16.28c0,0-20.53,13.9-23.69,15s-7.74-1.51-8.38-6.28a39,39,0,0,1-.43-7.43Z"/><path class="cls-6" d="M159.91,186.81c-.59,2.69,2.64,6.52,6.71,8.63,3.22,1.67,14.32-10,20.61-15.55,0,0,3.76-8.21,4.29-13s-.57-6.53-.57-6.53l5.58,4.58s-2.47,14.48-4.25,18.44c0,0-18.9,16.51-22.15,17.82-7.08,2.85-16.74-7.93-14.62-12.92Z"/><path class="cls-6" d="M173.39,197.26c-.29,2.46,2.87,5.44,6.62,6.79,3,1.06,12.15-10.68,17.19-16.42,0,0,2.18-7.82,2.23-12.17s-1.05-5.71-1.05-5.71l5.29,3.33s-.94,13.16-2.17,16.91c0,0-15.18,17.1-17.92,18.68-6,3.45-15.37-4.86-13.93-9.56Z"/><path class="cls-6" d="M185.83,203.41c-.13,2,2.71,4.18,6,5,2.59.66,10.11-9,14.16-13.93,0,0,1.26-6.77,1.1-10.26s-1.17-4.52-1.17-4.52l4.69,2.34s.45,10.61-.42,13.69c0,0-11.75,15.51-14.13,16.78-5.89,3.17-14.34-3.52-13.33-7.39Z"/><path class="cls-6" d="M207.89,182.44s-3.38-3.11-6.35-5.82l-1.31-2.88a20.14,20.14,0,0,0-5.8-7.57L192.74,165s-1-2.39-5.24-4.42l-.72-2.43-.8.14s-4.53-5.11-7.74-5.3l1.41-4.22a18.78,18.78,0,0,1,5.36,3,12,12,0,0,1,2.9,4.8,17.11,17.11,0,0,1,5.12,2.71,7.38,7.38,0,0,1,2.75,4.83,13,13,0,0,1,5.15,3c2.18,2.16,3.52,6.74,3.52,6.74,1.74.55,6.29,4.59,6.56,7s-1.76,13.74-1.76,13.74S208.06,182.27,207.89,182.44Z"/><path class="cls-6" d="M145.09,177.88c-3.07-3-.8-9.62,4.6-16.93.43.5,1.22,1.34,2,2.11-3.46,4.86-5,8.9-3.62,10.26,2.06,2,9.73-2.6,17.13-10.25s11.73-15.46,9.67-17.46c-1.35-1.3-5.12.22-9.64,3.59a24.38,24.38,0,0,0-1.72-2.24c6.75-5.13,12.89-7.27,15.82-4.44,4,3.9-.36,15-9.8,24.74S149.12,181.78,145.09,177.88Z"/><path class="cls-6" d="M188.94,157.63a17.8,17.8,0,0,0,7.59,1c3.59-.54,4.33-3.86,3.54-6.71s-7.61-2.36-12-5.35-6.42,1.66-6.51,3.93-2.51-.91-2.31-2.79-1.17-5.46-1.17-5.46,6.34-2.27,10.9,1,10.81,3.4,13.1,4.37,4.79,9.09,2.34,13.63-7.94,4.57-11.18,2.41A10.61,10.61,0,0,1,188.94,157.63Z"/><path class="cls-6" d="M179.75,172.87A9.6,9.6,0,0,0,186,178s3.61-10.94,3.81-13.44a5.79,5.79,0,0,0-1.85-4.32s-6.91,10.43-8.25,12.63Zm15.54-13.29a5,5,0,0,0,3.16-6s-.48,1.11-2.81.9c-10-.88,0-4.61-10-5.73a6.77,6.77,0,0,0-4.41,1.31,41,41,0,0,0,3.23,5.41c2.07,3,8.58,6,10.88,4.12ZM199.67,190a27.06,27.06,0,0,0,4.86,3.18s1-8.35.87-10.15-2.67-5.46-2.67-5.46-2.92,10.36-3.06,12.43Zm-10.38-9.36c1.15-3.29,6.21-13.94,6.21-13.94s2.81,3.73,2.34,6.32-2.1,12.83-2.1,12.83a44.77,44.77,0,0,1-6.45-5.21Zm-18.41-17.14a20.72,20.72,0,0,0,5.84,4.8s4.48-9,5.31-10.74-2.92-5.6-2.92-5.6S174.07,158.76,170.88,163.45Z"/><path class="cls-6" d="M242.56,227.41l-36.21-35,1.07-6.45,41.84,40.46c-1.33,7.18-7.51,18.39-19.09,17.56l-35.34-34.19,4.15-4.29,33.68,32.57C236,237,242.34,233.18,242.56,227.41Z"/><path class="cls-6" d="M119.7,139.57c-2.56.29-9.46.73-12.25-2.38-2.39-2.67,8.36-15.8,12.59-22.61,0,0,7.3-4.89,11.92-6.13s6.7-.27,6.7-.27l-6.36-5.37s-12.47,6.1-16,8.4c0,0-13.2,21-14.19,24.18S105,143.31,110,144a27.9,27.9,0,0,0,15.53-2.18c-3.08-7.41,13.1-20.49,13.1-20.49l3.38,3.39s5.55-7.63,6.51-10.7a16.25,16.25,0,0,0,.53-6.28s-4.68,3-6.14,3.4a4.3,4.3,0,0,0-1.8.71l-3.39-.39a34.94,34.94,0,0,0-10.33,9.31c-3.31,4.71-7.86,12.14-9.52,16.48.84.84,1.58,1.6,2.19,2.23Z"/><path class="cls-6" d="M104.75,133.47c-2.66.68-6.6-2.43-8.85-6.42-1.77-3.17,9.52-14.65,14.86-21.12,0,0,8.08-4,12.88-4.72s6.54.35,6.54.35l-4.76-5.43s-14.39,3-18.29,4.86c0,0-15.87,19.45-17.07,22.74-2.61,7.17,8.48,16.47,13.4,14.18Z"/><path class="cls-6" d="M93.86,120.35c-2.45.37-5.54-2.7-7-6.4C85.7,111,97.12,101.46,102.69,96.22c0,0,7.75-2.43,12.09-2.63s5.74.86,5.74.86L117,89.27S103.89,90.65,100.19,92c0,0-16.58,15.75-18.08,18.54-3.24,6.08,5.37,15.2,10,13.6Z"/><path class="cls-6" d="M87.3,108.12c-2,.19-4.27-2.58-5.21-5.82-.75-2.57,8.66-10.41,13.45-14.62,0,0,6.72-1.49,10.22-1.45s4.55,1,4.55,1l-2.49-4.6s-10.62-.1-13.67.87c0,0-15.11,12.27-16.3,14.68-3,6,4,14.22,7.83,13.08Z"/><path class="cls-6" d="M107.52,85.36s3.22,3.28,6,6.16l2.93,1.21a20.21,20.21,0,0,1,7.76,5.55l1.2,1.65s2.42.88,4.59,5.09l2.45.63-.12.81s5.26,4.35,5.56,7.56l4.17-1.55a18.72,18.72,0,0,0-3.17-5.26,12,12,0,0,0-4.9-2.73,17.16,17.16,0,0,0-2.88-5,7.43,7.43,0,0,0-4.92-2.59,13.14,13.14,0,0,0-3.15-5c-2.23-2.1-6.85-3.28-6.85-3.28-.61-1.72-4.8-6.14-7.23-6.32s-13.67,2.22-13.67,2.22S107.68,85.2,107.52,85.36Z"/><path class="cls-6" d="M133,103.47a17.6,17.6,0,0,1-1.22-7.55c.42-3.61,3.71-4.46,6.58-3.75s2.62,7.52,5.75,11.8-1.45,6.47-3.71,6.63,1,2.49,2.86,2.22,5.59-1.1,5.59-1.1a8.86,8.86,0,0,0-1.49-8.77c-3.45-4.45-3.76-10.69-4.81-13s-9.24-4.49-13.7-1.88-4.3,8.08-2,11.25S132.81,103.62,133,103.47Z"/><path class="cls-6" d="M118,113.17a9.61,9.61,0,0,1-5.33-6.12s10.8-4,13.3-4.25a5.81,5.81,0,0,1,4.38,1.7s-10.19,7.26-12.35,8.67Zm12.76-16a5,5,0,0,1,5.91-3.36s-1.1.51-.81,2.84c1.21,9.93,4.61-.11,6.06,9.85a6.75,6.75,0,0,1-1.15,4.45,41.17,41.17,0,0,1-5.52-3c-3.05-2-6.29-8.37-4.49-10.73Zm-30.49-3.37A26.32,26.32,0,0,1,97,89.08s8.31-1.26,10.11-1.2,5.54,2.48,5.54,2.48-10.25,3.27-12.31,3.47Zm9.7,10.06c3.25-1.25,13.72-6.67,13.72-6.67s-3.82-2.69-6.39-2.13-12.76,2.54-12.76,2.54a44.75,44.75,0,0,0,5.43,6.26Zm17.74,17.83a20.76,20.76,0,0,1-5-5.67s8.85-4.79,10.56-5.68,4.58,1.9,4.58,1.9A86.15,86.15,0,0,1,127.73,121.72Z"/><path class="cls-6" d="M140.73,128.92l-8.82-8.53c1.8-1.37,3.53-2.48,4.53-3.1l11.26,10.89-18,18.61-9.72-9.4c.27,0,.52,0,.78-.08,0,0,.9-2.4,2.24-5.31l7.14,6.91A15.56,15.56,0,0,1,140.73,128.92Z"/><path class="cls-6" d="M226.28,234.74s10-6.15,13.61-14.72l-3.2-3.09s-.74,12.3-13.16,13.92l-2.67.52S226.42,234.27,226.28,234.74Z"/><path class="cls-6" d="M238,218.8s-13.61-3.56-24.5,4.19l-2.74-3.58s12.43-1,20.09-4.43l4.25.08a46,46,0,0,1,2.9,3.74Zm-11.69-11.31a45.66,45.66,0,0,0-2.9-3.73l-4.25-.09c-7.66,3.44-20.09,4.43-20.09,4.43l2.74,3.58C212.69,203.94,226.29,207.49,226.29,207.49Z"/><path class="cls-6" d="M132.16,141.33l21.7,21A29.21,29.21,0,0,0,164,151.81l-21.71-21c0-.4-1.87-7.86-1.87-7.86l28.73,27.79c-4.43,7.21-9.72,13-16.21,16.76l-28.73-27.79S131.76,141.32,132.16,141.33Z"/><path class="cls-6" d="M151.11,164.63s-1.68,2.75-1.24,4.68,7.13-2.15,14.28-10.46,7.22-11.43,7.22-11.43-2.15,2.9-4.83.91c0,0-.54,2-.71,2.78s.37,1-2,3.84S154.86,164.94,151.11,164.63Z"/><path class="cls-6" d="M158.77,159.67,136.39,138l3.29-3a73.62,73.62,0,0,0,5,8.14l-1.46.87,6.85-.83L145.53,145c3.68,4.4,9.49,9.2,17,10.53L162,157.3S160,159.44,158.77,159.67Z"/><polygon class="cls-6" points="27.96 39.23 26.58 34.1 25.74 31 28.66 31.59 34.1 32.71 61.02 38.21 114.72 83.08 81.48 118.48 35.08 65.7 27.96 39.23"/><polygon class="cls-6" points="46.79 50.78 52.57 72.28 42.28 63.21 36.27 40.9 46.79 50.78"/><polygon class="cls-6" points="96.9 97.89 60.96 64.1 74.8 66.93 101.14 93.38 96.9 97.89"/><polygon class="cls-7" points="41.64 60.86 36.27 40.9 58.93 45.52 107.15 86.99 99.44 95.19 59.42 62.67 95.03 99.89 85.62 109.9 41.64 60.86"/><path class="cls-3" d="M49.29,69.39,75.12,98.18a82,82,0,0,1,7.73-11L59.42,62.67,46.79,50.79,36.27,40.9l5.37,20Z"/><path class="cls-1" d="M120.81,165.74,143.61,143s-6.22-7.38-6.79-8.21-5.89-5.62-5.89-5.62l-22.46,23.11S115.24,161.89,120.81,165.74Z"/><path class="cls-2" d="M112.39,155.58c-3.43-2.22-3.47-4.17-2.5-6.11s8.72-8,10.85-10.07,9.9-8.85,10.54-8.77,3.41,3.38,3.41,3.38l-7.5,7.25,4.77,2.82s-.09.26-1.33.11l-5.48-.95-12.76,12.34Zm22.89-5.87c-.25,0,1-.77,1-.77l-7.57-2.3-1.11,1.07,7.68,2Zm-1.35.92-7.88-1.52-3.42,3.31,9,.74C131.36,153.3,133.93,150.63,133.93,150.63Z"/><path class="cls-3" d="M101.94,198.09l.58.44-.27.67a8.79,8.79,0,0,1-2.64,3.34,15,15,0,0,1-4.3,2.4c-3.08,1.1-10-7.09-15.32-13.3-1.07-1.26-2.08-2.44-2.9-3.38l-.21-.38s-2.2-7.94-2.26-12.41a21.85,21.85,0,0,1,.08-2.25,13.13,13.13,0,0,1,.32-2l.11-.28a21,21,0,0,1,1.26-1.8c.42-.54.91-1.12,1.47-1.72l1.51,1.13a11.67,11.67,0,0,0-1,2.16,4.2,4.2,0,0,0-.27,2c.35,1.91,1.41,8.5,1.88,11.43l.26-.18c.6-.45,1.24-1,1.85-1.47l1-.81.45,1c1.43,1.24,12.44,10.8,18.45,15.32Zm-24.6-42.86a3.37,3.37,0,0,0,.22,1.05,3.75,3.75,0,0,0,1,1.52l-.86,1.62-.23-.06a4.9,4.9,0,0,1-3.4-3,7.42,7.42,0,0,1-.19-4.36h0c0-.14.06-.25.08-.33h0c.58-2.07,3-2.7,6-3.45a20.42,20.42,0,0,0,6.42-2.43,6.39,6.39,0,0,1,2.37-1.06,3.92,3.92,0,0,1,2.61.36,4.86,4.86,0,0,1,1.74,1.6,7.55,7.55,0,0,1,1.15,2.82l.14.71-.65.32,0,0-.46.22-.44-.26a6.65,6.65,0,0,0-1.7-.7,4.56,4.56,0,0,0-1.58-.12c-4.18.47-4.19,1.26-4.2,2,0,1.62,0,3.19-5.87,3.71a5.3,5.3,0,0,1-2.11-.19Zm25,20.93c-2.26-1.69-4.39-3.29-6.16-4.47l-.28-.28s-4.72-7.6-5.85-12.41c-.08-.39-.16-.76-.23-1.11s-.12-.73-.16-1.07l-.06-.48L90,156c.57-.53,1.24-1.13,1.94-1.67a17,17,0,0,1,1.84-1.25L95,154.47a8.85,8.85,0,0,0-1,1.72,1.36,1.36,0,0,0-.16.91c.56,1.18,3.69,7.46,4.86,9.83a17.87,17.87,0,0,0,1.5-1,21.27,21.27,0,0,0,2.23-2l.72-.73.67.78c.4.47.79.91,1.17,1.33s.75.81,1.22,1.29a54.69,54.69,0,0,0,8,6.83,32.31,32.31,0,0,0,7.72,4.08l.68.23,0,.72a10.91,10.91,0,0,1-.69,3.45,6.63,6.63,0,0,1-2.38,3.1c-2.73,1.9-10.42-3.86-17.08-8.85Zm-10.69,8.61c6.33,5.93,14,13.13,17.14,11.51a17.62,17.62,0,0,0,4.54-3.36,10,10,0,0,0,2.56-4.1l.2-.72-.64-.36c-1.94-1.09-4.91-2.94-8-5-5.37-3.46-11.15-7.34-13-8.61l-.7-.47-.55.64a8.59,8.59,0,0,1-1.76,1.56,8.37,8.37,0,0,1-1.82.92c-.85-2.62-3.31-10.37-3.47-12.34a3.73,3.73,0,0,1,.18-1.43,5.1,5.1,0,0,1,.57-1.17l-1.27-1.33A14.16,14.16,0,0,0,84,161.64a11.64,11.64,0,0,0-1.32,1.2l-.25.6c0,.5,0,1.06,0,1.68s.07,1.16.14,1.84c.55,5,4.36,13.3,4.37,13.32l.23.32c1.38,1.21,2.91,2.65,4.53,4.17Zm-16.74,5.4-.57-.64-.7.52c-.46.34-1,.75-1.67,1.15l-.74.45c-.27-2.42-.78-7.33-.7-8.61a6.21,6.21,0,0,1,.73-2c.42-.82.92-1.65,1.29-2.22l.15-.6v-.11l-.18-1.89-1.41,1.29L69.44,179l-1.74,1.59-.26.43a10.25,10.25,0,0,0-.31,1.48,14.82,14.82,0,0,0-.16,1.67c-.17,3.6,1.12,10.45,1.12,10.47l.2.43,1.27,1.56c4.35,5.34,10.93,13.43,13.85,12.69a12.83,12.83,0,0,0,3-1.18,9.71,9.71,0,0,0,2.38-1.77l.64-.67-.66-.66C87.09,203.39,85,201.19,83,199,79.63,195.41,76.35,191.76,74.93,190.17Z"/><path class="cls-4" d="M100.63,198.37s-13.7-9.5-17.61-10.44-7.23,1.84-7.23,1.84L87.65,204.7s-8.07-6.79-12.19-8.17a19.33,19.33,0,0,0-6.75-1.2s-2.26-8.11-2-11.6,1.39-4.78,3.5-7,3.74-8.55,7.93-11.32A43.22,43.22,0,0,0,86.34,159a33.61,33.61,0,0,0,3.4-4.27A34.4,34.4,0,0,1,79,159.54c-4,.8-3.93.09-5.44-3.39s1.57-4.6,1.57-4.6,1.3,1.67,8.66-1.27,10.36,0,10.36,0a8,8,0,0,1-1.5,2,2.54,2.54,0,0,1,.55,0c2.5.37,4.11,1.82,6.69,4.26s6.87,7.1,8.26,8.54,12.25,11.55,12.25,11.55-13.65-5.9-18.22-6.85-6.57,1.64-6.57,1.64,4.39,5,5,5.64,12.4,8.83,12.4,8.83-16.89-7.7-20.27-7.65-7,3.16-7,3.16S102.23,194.25,100.63,198.37Z"/><path class="cls-2" d="M72.11,199.87s6.8,8.07,16,4.16L82,193.94s5.5,5.34,11.58,5.78,8.18-2.91,8.18-2.91L91,185s9.7,7.27,15.47,6,7.87-4.94,7.87-4.94L99.77,174.77s9.57,4.73,14.32,4.47a13.69,13.69,0,0,0,8-3.42s1.59,6.12.53,8.81-2.15,7.08-10.2,12.53-14.53,9.06-17.92,9.34-3.55-.23-6.29,1.42-5.67,5.15-8.33,2.4S73.68,207,72.11,199.87Z"/><path class="cls-3" d="M181.39,121.25l.42.6.68-.25a8.66,8.66,0,0,0,3.42-2.53,14.77,14.77,0,0,0,2.54-4.21c1.2-3-6.74-10.27-12.78-15.76-1.23-1.11-2.37-2.15-3.28-3l-.37-.22s-7.87-2.47-12.33-2.67a21.21,21.21,0,0,0-2.26,0,14.6,14.6,0,0,0-2,.25l-.28.11a21.87,21.87,0,0,0-3.61,2.61l1.07,1.54a13.11,13.11,0,0,1,2.2-.94,4.27,4.27,0,0,1,2.05-.2c1.9.42,8.44,1.69,11.36,2.26-.06.09-.13.17-.19.25-.47.6-1,1.22-1.53,1.81l-.85.94,1,.48c1.19,1.46,10.38,12.78,14.7,18.94Zm-42-26a3.37,3.37,0,0,1,1,.25,3.84,3.84,0,0,1,1.47,1.1l1.65-.8a1.41,1.41,0,0,0,0-.24,4.88,4.88,0,0,0-2.91-3.49,7.3,7.3,0,0,0-4.35-.33h0l-.34.07h0c-2.09.51-2.8,2.94-3.64,5.83A20.13,20.13,0,0,1,129.6,104a6.25,6.25,0,0,0-1.13,2.34,3.89,3.89,0,0,0,.26,2.62,4.86,4.86,0,0,0,1.55,1.79,7.74,7.74,0,0,0,2.78,1.25l.71.16.34-.64,0,0,.25-.45-.25-.45a6.29,6.29,0,0,1-.64-1.72,4.41,4.41,0,0,1-.07-1.59c.61-4.15,1.4-4.14,2.17-4.12,1.61,0,3.19.06,3.9-5.75a5.11,5.11,0,0,0-.12-2.11Zm20.09,25.7c-1.62-2.31-3.14-4.5-4.26-6.31l-.28-.28s-7.43-5-12.21-6.26l-1.1-.27c-.37-.08-.72-.14-1.07-.2l-.47-.07-.34.34c-.55.55-1.17,1.2-1.74,1.88a17,17,0,0,0-1.3,1.79l1.33,1.29a9.15,9.15,0,0,1,1.75-.95,1.38,1.38,0,0,1,.92-.13c1.15.6,7.33,3.93,9.66,5.19-.35.52-.72,1-1.08,1.46a21.29,21.29,0,0,1-2,2.16l-.76.7.76.7c.45.41.88.81,1.29,1.21s.78.78,1.25,1.26a54.17,54.17,0,0,1,6.56,8.18c1.8,2.79-.36,5.77.36,8.15l3.67.4.72,0a11.12,11.12,0,0,0,3.47-.58,6.63,6.63,0,0,0,3.18-2.27c2-2.67-3.51-10.55-8.27-17.37Zm8.95-10.4c5.72,6.53,12.66,14.45,10.94,17.53a18.16,18.16,0,0,1-3.51,4.42,10.13,10.13,0,0,1-4.18,2.42l-.73.18-.34-.66c-1-2-2.78-5-4.68-8.19-3.27-5.48-7-11.39-8.17-13.32l-.45-.71.66-.53a8.65,8.65,0,0,0,1.62-1.71,8,8,0,0,0,1-1.79c-2.59-.93-10.25-3.66-12.22-3.88a3.73,3.73,0,0,0-1.43.13,5.26,5.26,0,0,0-1.19.54l-1.29-1.32a14.86,14.86,0,0,1,1.13-1.55,11.83,11.83,0,0,1,1.25-1.28l.6-.24c.51,0,1.07,0,1.69,0s1.15.1,1.83.2c5,.71,13.15,4.79,13.17,4.81l.31.24c1.17,1.42,2.55,3,4,4.66Zm6-16.54-.63-.6.54-.68c.36-.45.79-1,1.21-1.62.16-.24.32-.48.47-.73-2.4-.35-7.29-1-8.58-1a6.19,6.19,0,0,0-2,.66,24.78,24.78,0,0,0-2.26,1.22l-.61.12h-.1l-1.89-.24,1.33-1.36,1.6-1.64,1.65-1.68.44-.25a11.47,11.47,0,0,1,1.48-.26,16.52,16.52,0,0,1,1.68-.1c3.6,0,10.41,1.47,10.43,1.47l.42.21L181,88.85c5.19,4.52,13.06,11.37,12.22,14.26a13.19,13.19,0,0,1-1.28,3,9.78,9.78,0,0,1-1.85,2.32l-.7.61-.62-.67c-1.63-1.75-3.75-3.9-5.89-6C179.46,98.87,175.92,95.47,174.38,94Z"/><path class="cls-4" d="M181.71,120s-9-14-9.85-17.95S174,94.84,174,94.84l14.52,12.36s-6.52-8.3-7.76-12.46a19.48,19.48,0,0,1-1-6.78s-8-2.54-11.52-2.38-4.82,1.23-7.15,3.26-8.68,3.46-11.58,7.56a43.86,43.86,0,0,1-6.68,8,35.16,35.16,0,0,1-4.38,3.26,35.12,35.12,0,0,0,5.21-10.56c.93-4,.22-3.92-3.21-5.55s-4.66,1.41-4.66,1.41,1.63,1.36-1.56,8.61-.33,10.37-.33,10.37a7.89,7.89,0,0,0,2.06-1.44,2.52,2.52,0,0,0,0,.55c.29,2.51,1.68,4.17,4,6.83s6.86,7.1,8.26,8.54,5.87,15.48,5.87,15.48c13.62-1.36-.18-16.69-1-21.29s1.86-6.51,1.86-6.51,4.83,4.55,5.47,5.22S168.85,132,168.85,132s-7.13-17.14-7-20.52,3.39-6.92,3.39-6.92S177.54,121.41,181.71,120Z"/><path class="cls-2" d="M184.16,91.5s7.83,7.07,3.62,16.14l-9.88-6.43s5.15,5.67,5.39,11.77-3.18,8.07-3.18,8.07l-11.49-11.19s6.94,9.93,5.49,15.66-5.2,7.7-5.2,7.7l-10.76-14.91s4.61,9.93,4.19,14.66a12.31,12.31,0,0,1-3.68,7.59s5.86,1.89,8.58.92,7.15-1.91,12.86-9.77,9.55-14.23,9.94-17.6-.11-3.56,1.63-6.24,5.34-5.49,2.68-8.25S191.24,93.31,184.16,91.5Z"/><path class="cls-3" d="M77.31,208.36c-6.76-6.48-11.16-16.72-11.16-16.72L30.21,226.39a14.08,14.08,0,0,0,3.68,8.46,26,26,0,0,0,8.81,5.49l34.61-32Zm47.88-44.53c-1.65-1.71-4,1.38-5.54.95s-4.65-4.48-7.1-7-3.77-4.39-3.91-5.67.93-2.95.48-4.4-2.14-1.56-3.81-2.47-6.46-1.63-7.67-1.25-1.42,3.58-.68,7.12,5.61,9.87,9.24,13,11.87,9,14.49,10.26,7.44.69,7.73-2.27-3.23-8.23-3.23-8.23Zm19.62-21.75c.06,0,2.62-2.42,7.08-6.66-.11-.39-.24-.78-.39-1.19-1.74-4.67-7.06-11.81-7.06-11.81a40.92,40.92,0,0,1-5.25-2.76L130,128.35l8.54,6.76,6.24,7Z"/><path class="cls-4" d="M77.31,208.36c-2.51-2.41-2.26-3.82-4-6.55-26,25.33-38.31,29.09-41.18,30.67a11.94,11.94,0,0,0,1.78,2.37,26,26,0,0,0,8.81,5.49l34.61-32ZM116.84,162a12.78,12.78,0,0,0,3,1.47,4.61,4.61,0,0,1-3-1.47Zm6,1.9s4.68,5.21-.29,6.59-16.34-9.62-20.62-16.66-3.64-6.93-2.89-8.2,4-1.68,4-1.68a9.76,9.76,0,0,0,2.81,7.2c3.16,3.08,5.07-1.29,4.26-2.5a10.46,10.46,0,0,0-4-3.18c-1.81-.95-5-2.92-6.38-2.12s-2.38,5.55.21,9.72,10.76,14.29,15.74,17.58,8.53,5.28,10.19,4.57,3.34-2.14,2.55-4.63c-.55-1.77-2.28-5.58-3.82-6.94-.63-.55-1.32.15-1.75.25Zm15.64-28.88.08.06,6.24,7c.06,0,2.62-2.42,7.08-6.66-.11-.39-.24-.78-.39-1.19a44.24,44.24,0,0,0-4.23-7.74l-8.78,8.56Z"/><path class="cls-5" d="M119.83,163.5a12.78,12.78,0,0,1-3-1.47,8.83,8.83,0,0,1-1.6-2.25s3-4.53,4.74-5.6,10.93-9.56,10.93-9.56c1.78-.41,1.59-2.26,2.35-3.43a40.24,40.24,0,0,1,3.61-3.92l4,3.53s-4.43.52-12.1,9.25-7.38,13.22-7.38,13.22A4,4,0,0,1,119.83,163.5Z"/><path class="cls-2" d="M30.3,227.22l.24.13s4,2.83,9.89-2.91l2.75-2.64a38.22,38.22,0,0,1,16.41-.34c-.08-2.28-3.31-2.94-7-3.6a31.12,31.12,0,0,0-5-.31l7.28-7a38.19,38.19,0,0,1,16.31-.31c-.08-2.29-3.31-2.94-7-3.6a30.08,30.08,0,0,0-4.89-.32l9.63-9.25c-1.77-3.13-2.76-5.44-2.76-5.44L30.21,226.39a7.7,7.7,0,0,0,.09.83Zm94.37-57.51c-3.34-3.46-8.7-7.27-12.25-10.73s-8.33-10.56-8.33-10.56c-1.34,3.81,2.5,9.29,9.31,15.25s11.27,6,11.27,6ZM130,128.35l9.16-8.69a40.92,40.92,0,0,0,5.25,2.76s.36.48.91,1.27l-9.58,9.2Z"/><path class="cls-6" d="M121.37,175.1s1.31,6.52-2.47,9.13c-3,2.05-15.51-8.87-22.18-13.32,0,0-4.63-7.47-5.72-12.13s0-6.7,0-6.7l-5.58,6.17s5.69,12.68,7.86,16.28c0,0,20.53,13.9,23.69,15s7.74-1.51,8.38-6.28a39,39,0,0,0,.43-7.43Z"/><path class="cls-6" d="M115.09,186.81c.59,2.69-2.64,6.52-6.71,8.63-3.22,1.67-14.32-10-20.61-15.55,0,0-3.76-8.21-4.29-13s.57-6.53.57-6.53l-5.58,4.58s2.47,14.48,4.25,18.44c0,0,18.9,16.51,22.15,17.82,7.08,2.85,16.74-7.93,14.62-12.92Z"/><path class="cls-6" d="M101.61,197.26c.29,2.46-2.87,5.44-6.62,6.79-3,1.06-12.15-10.68-17.19-16.42,0,0-2.18-7.82-2.23-12.17s1.05-5.71,1.05-5.71l-5.29,3.33s.94,13.16,2.17,16.91c0,0,15.18,17.1,17.92,18.68,6,3.45,15.37-4.86,13.93-9.56Z"/><path class="cls-6" d="M89.17,203.41c.13,2-2.71,4.18-6,5-2.59.66-10.11-9-14.16-13.93,0,0-1.26-6.77-1.1-10.26s1.17-4.52,1.17-4.52l-4.69,2.34s-.45,10.61.42,13.69c0,0,11.75,15.51,14.13,16.78,5.89,3.17,14.34-3.52,13.33-7.39Z"/><path class="cls-6" d="M67.11,182.44s3.38-3.11,6.35-5.82l1.31-2.88a20.14,20.14,0,0,1,5.8-7.57L82.26,165s1-2.39,5.24-4.42l.72-2.43.8.14s4.53-5.11,7.74-5.3l-1.41-4.22a18.78,18.78,0,0,0-5.36,3,12,12,0,0,0-2.9,4.8A17.11,17.11,0,0,0,82,159.31a7.38,7.38,0,0,0-2.75,4.83,13,13,0,0,0-5.15,3c-2.18,2.16-3.52,6.74-3.52,6.74-1.74.55-6.29,4.59-6.56,7s1.76,13.74,1.76,13.74S66.94,182.27,67.11,182.44Z"/><path class="cls-6" d="M129.91,177.88c3.07-3,.8-9.62-4.6-16.93-.43.5-1.22,1.34-2,2.11,3.46,4.86,5,8.9,3.62,10.26-2.06,2-9.73-2.6-17.13-10.25s-11.73-15.46-9.67-17.46c1.35-1.3,5.12.22,9.64,3.59a24.38,24.38,0,0,1,1.72-2.24c-6.75-5.13-12.89-7.27-15.82-4.44-4,3.9.36,15,9.8,24.74S125.88,181.78,129.91,177.88Z"/><path class="cls-6" d="M86.06,157.63a17.8,17.8,0,0,1-7.59,1c-3.59-.54-4.33-3.86-3.54-6.71s7.61-2.36,12-5.35,6.42,1.66,6.51,3.93,2.51-.91,2.31-2.79,1.17-5.46,1.17-5.46-6.34-2.27-10.9,1-10.81,3.4-13.1,4.37-4.79,9.09-2.34,13.63,7.94,4.57,11.18,2.41A10.61,10.61,0,0,0,86.06,157.63Z"/><path class="cls-6" d="M95.25,172.87c-1.34-2.2-8.25-12.63-8.25-12.63a5.79,5.79,0,0,0-1.85,4.32C85.35,167.06,89,178,89,178a9.6,9.6,0,0,0,6.29-5.13ZM79.71,159.58c2.3,1.88,8.81-1.14,10.88-4.12a41,41,0,0,0,3.23-5.41,6.77,6.77,0,0,0-4.41-1.31c-10,1.12-.08,4.85-10,5.73-2.33.21-2.81-.9-2.81-.9a5,5,0,0,0,3.16,6ZM75.33,190c-.14-2.07-3.06-12.43-3.06-12.43s-2.55,3.66-2.67,5.46.87,10.15.87,10.15A27.06,27.06,0,0,0,75.33,190Zm10.38-9.36a44.77,44.77,0,0,1-6.45,5.21s-1.63-10.25-2.1-12.83,2.34-6.32,2.34-6.32,5.06,10.65,6.21,13.94Zm10.18-28.68s-3.75,3.87-2.92,5.6,5.31,10.74,5.31,10.74a20.72,20.72,0,0,0,5.84-4.8C100.93,158.76,95.89,151.91,95.89,151.91Z"/><path class="cls-6" d="M32.44,227.41l36.21-35-1.07-6.45L25.74,226.4c1.33,7.18,7.51,18.39,19.09,17.56l35.34-34.19L76,205.48,42.34,238.05C39,237,32.66,233.18,32.44,227.41Z"/><path class="cls-6" d="M155.3,139.57c2.56.29,9.46.73,12.25-2.38,2.39-2.67-8.36-15.8-12.59-22.61,0,0-7.3-4.89-11.92-6.13s-6.7-.27-6.7-.27l6.36-5.37s12.47,6.1,16,8.4c0,0,13.2,21,14.19,24.18S170,143.31,165,144a27.9,27.9,0,0,1-15.53-2.18c3.08-7.41-13.1-20.49-13.1-20.49L133,124.69s-5.55-7.63-6.51-10.7a16.25,16.25,0,0,1-.53-6.28s4.68,3,6.14,3.4a4.3,4.3,0,0,1,1.8.71l3.39-.39a34.94,34.94,0,0,1,10.33,9.31c3.31,4.71,7.86,12.14,9.52,16.48-.84.84-1.58,1.6-2.19,2.23Z"/><path class="cls-6" d="M170.25,133.47c2.66.68,6.6-2.43,8.85-6.42,1.77-3.17-9.52-14.65-14.86-21.12,0,0-8.08-4-12.88-4.72s-6.54.35-6.54.35l4.76-5.43s14.39,3,18.29,4.86c0,0,15.87,19.45,17.07,22.74,2.61,7.17-8.48,16.47-13.4,14.18Z"/><path class="cls-6" d="M181.14,120.35c2.45.37,5.54-2.7,7-6.4,1.15-2.93-10.27-12.49-15.84-17.73,0,0-7.75-2.43-12.09-2.63s-5.74.86-5.74.86l3.5-5.18s13.13,1.38,16.83,2.73c0,0,16.58,15.75,18.08,18.54,3.24,6.08-5.37,15.2-10,13.6Z"/><path class="cls-6" d="M187.7,108.12c2,.19,4.27-2.58,5.21-5.82.75-2.57-8.66-10.41-13.45-14.62,0,0-6.72-1.49-10.22-1.45s-4.55,1-4.55,1l2.49-4.6s10.62-.1,13.67.87c0,0,15.11,12.27,16.3,14.68,3,6-4,14.22-7.83,13.08Z"/><path class="cls-6" d="M167.48,85.36s-3.22,3.28-6,6.16l-2.93,1.21a20.21,20.21,0,0,0-7.76,5.55l-1.2,1.65s-2.42.88-4.59,5.09l-2.45.63.12.81s-5.26,4.35-5.56,7.56l-4.17-1.55a18.72,18.72,0,0,1,3.17-5.26,12,12,0,0,1,4.9-2.73,17.16,17.16,0,0,1,2.88-5,7.43,7.43,0,0,1,4.92-2.59,13.14,13.14,0,0,1,3.15-5c2.23-2.1,6.85-3.28,6.85-3.28.61-1.72,4.8-6.14,7.23-6.32s13.67,2.22,13.67,2.22S167.32,85.2,167.48,85.36Z"/><path class="cls-6" d="M142.05,103.47a17.6,17.6,0,0,0,1.22-7.55c-.42-3.61-3.71-4.46-6.58-3.75s-2.62,7.52-5.75,11.8,1.45,6.47,3.71,6.63-1,2.49-2.86,2.22-5.59-1.1-5.59-1.1a8.86,8.86,0,0,1,1.49-8.77c3.45-4.45,3.76-10.69,4.81-13s9.24-4.49,13.7-1.88,4.3,8.08,2,11.25S142.19,103.62,142.05,103.47Z"/><path class="cls-6" d="M157,113.17c-2.16-1.41-12.35-8.67-12.35-8.67a5.81,5.81,0,0,1,4.38-1.7c2.5.29,13.3,4.25,13.3,4.25a9.61,9.61,0,0,1-5.33,6.12Zm-12.76-16c1.8,2.36-1.44,8.76-4.49,10.73a41.17,41.17,0,0,1-5.52,3,6.75,6.75,0,0,1-1.15-4.45c1.45-10,4.85.08,6.06-9.85.29-2.33-.81-2.84-.81-2.84a5,5,0,0,1,5.91,3.36Zm30.49-3.37c-2.06-.2-12.31-3.47-12.31-3.47s3.73-2.43,5.54-2.48,10.11,1.2,10.11,1.2a26.32,26.32,0,0,1-3.34,4.75ZM165,103.89a44.75,44.75,0,0,0,5.43-6.26s-10.19-2-12.76-2.54-6.39,2.13-6.39,2.13,10.47,5.42,13.72,6.67Zm-27.89,8.38s2.88-2.78,4.58-1.9,10.56,5.68,10.56,5.68a20.76,20.76,0,0,1-5,5.67A86.15,86.15,0,0,1,137.12,112.27Z"/><path class="cls-6" d="M134.27,128.92l8.82-8.53c-1.8-1.37-3.53-2.48-4.53-3.1L127.3,128.18l18,18.61,9.72-9.4c-.27,0-.52,0-.78-.08,0,0-.9-2.4-2.24-5.31l-7.14,6.91A15.56,15.56,0,0,0,134.27,128.92Z"/><path class="cls-6" d="M48.72,234.74s-10-6.15-13.61-14.72l3.2-3.09s.74,12.3,13.16,13.92l2.67.52S48.58,234.27,48.72,234.74Z"/><path class="cls-6" d="M37,218.8a46,46,0,0,1,2.9-3.74l4.25-.08c7.66,3.43,20.09,4.43,20.09,4.43L61.52,223C50.63,215.24,37,218.8,37,218.8Zm36.19-7.12L76,208.1s-12.43-1-20.09-4.43l-4.25.09a45.66,45.66,0,0,0-2.9,3.73S62.31,203.94,73.21,211.68Z"/><path class="cls-6" d="M142.84,141.33l-21.7,21A29.21,29.21,0,0,1,111,151.81l21.71-21c0-.4,1.87-7.86,1.87-7.86l-28.73,27.79c4.43,7.21,9.72,13,16.21,16.76l28.73-27.79S143.24,141.32,142.84,141.33Z"/><path class="cls-6" d="M123.89,164.63s1.68,2.75,1.24,4.68-7.13-2.15-14.28-10.46-7.22-11.43-7.22-11.43,2.15,2.9,4.83.91c0,0,.54,2,.71,2.78s-.37,1,2,3.84S120.14,164.94,123.89,164.63Z"/><path class="cls-6" d="M116.23,159.67,138.61,138l-3.29-3a73.62,73.62,0,0,1-5,8.14l1.46.87-6.85-.83,4.55,1.83c-3.68,4.4-9.49,9.2-17,10.53l.49,1.77S115,159.44,116.23,159.67Z"/><polygon class="cls-6" points="247.04 39.23 248.42 34.1 249.26 31 246.34 31.59 240.9 32.71 213.97 38.21 160.28 83.08 193.52 118.48 239.92 65.7 247.04 39.23"/><polygon class="cls-6" points="228.21 50.78 222.43 72.28 232.72 63.21 238.73 40.9 228.21 50.78"/><polygon class="cls-6" points="178.1 97.89 214.04 64.1 200.2 66.93 173.85 93.38 178.1 97.89"/><polygon class="cls-7" points="233.36 60.86 238.73 40.9 216.07 45.52 167.85 86.99 175.56 95.19 215.58 62.67 179.97 99.89 189.38 109.9 233.36 60.86"/><path class="cls-3" d="M225.71,69.39,199.88,98.18a82,82,0,0,0-7.73-11l23.43-24.49,12.63-11.88,10.52-9.89-5.37,20Z"/><circle class="cls-8" cx="137.5" cy="137.5" r="74.19" transform="translate(-27.53 34.66) rotate(-13.07)"/><path class="cls-9" d="M190.37,112l-21.83,12.6a3.1,3.1,0,0,0-1.42,3.58,31.08,31.08,0,0,1,0,18.67,3.09,3.09,0,0,0,1.42,3.58L190.38,163a3.12,3.12,0,0,0,4.43-1.5,62.32,62.32,0,0,0,0-48A3.12,3.12,0,0,0,190.37,112Z"/><path class="cls-10" d="M145.78,170.09l3,25a3.11,3.11,0,0,0,3.87,2.64,62.22,62.22,0,0,0,36.64-25.9,3.1,3.1,0,0,0-1.06-4.38L166.6,155a3.1,3.1,0,0,0-4,.84,31.16,31.16,0,0,1-14.73,11A3.1,3.1,0,0,0,145.78,170.09Z"/><path class="cls-11" d="M166.59,120l21.6-12.47a3.1,3.1,0,0,0,1.05-4.38,62.22,62.22,0,0,0-36.7-25.89,3.12,3.12,0,0,0-3.87,2.64l-3,25a3.1,3.1,0,0,0,2,3.29,31.19,31.19,0,0,1,14.79,10.95A3.09,3.09,0,0,0,166.59,120Z"/><path class="cls-2" d="M137.5,168.56a31.06,31.06,0,0,1,0-62.12h.2a3.12,3.12,0,0,0,3.15-2.74l2.93-24.76a3.1,3.1,0,0,0-2.88-3.47c-1.12-.06-2.26-.09-3.4-.09a62.12,62.12,0,0,0,0,124.24c1.17,0,2.33,0,3.48-.1a3.09,3.09,0,0,0,2.87-3.46l-2.93-24.76a3.12,3.12,0,0,0-3.15-2.74Z"/><path class="cls-2" d="M154.51,135.3l-23.64-13.65a3.11,3.11,0,0,0-4.66,2.69v27.29a3.11,3.11,0,0,0,4.66,2.69l23.64-13.65A3.1,3.1,0,0,0,154.51,135.3Z"/></g></svg>