<svg id="Layer_1" data-name="Layer 1" xmlns="http://www.w3.org/2000/svg" viewBox="0 0 575.34 81.25"><defs><style>.cls-1{fill:#6aa9c1;}.cls-1,.cls-2,.cls-4,.cls-5,.cls-6{fill-rule:evenodd;}.cls-2{fill:#172629;}.cls-3,.cls-5{fill:#e02e33;}.cls-4{fill:#efbe00;}.cls-6{fill:#ecbc00;}</style></defs><path class="cls-1" d="M74.65,60.87h37a4.22,4.22,0,0,0,3.65-6.32L96.81,22.49a4.21,4.21,0,0,0-7.3,0L71,54.55a4.21,4.21,0,0,0,3.65,6.32ZM106,53.39H80.31L93.16,31.13Z"/><polygon class="cls-2" points="54.3 60.87 63.52 60.87 59.89 20.38 50.08 20.38 41.1 43.74 32.12 20.38 22.3 20.38 18.67 60.87 27.89 60.87 29.81 36.87 30.05 36.87 38.35 60.62 43.84 60.62 52.14 36.87 52.38 36.87 54.3 60.87"/><polygon class="cls-2" points="160.47 60.87 141.62 39.57 157.91 20.38 146.73 20.38 132.84 36.92 132.84 20.38 123.61 20.38 123.61 60.87 132.84 60.87 132.84 43.69 147.76 60.87 160.47 60.87"/><path class="cls-2" d="M193.56,20.38H170.4v8.1h23.16v-8.1ZM170.4,36.52v8.1H193v-8.1H170.4Zm0,16.15v8.2h23.16v-8.1H179.62v-.1Z"/><polygon class="cls-2" points="256.13 60.87 266.34 60.87 277.87 20.38 267.66 20.38 260.74 48.16 260.5 48.16 253.13 20.38 246.16 20.38 238.8 48.16 238.56 48.16 231.64 20.38 221.38 20.38 232.91 60.87 243.17 60.87 249.65 38.14 256.13 60.87"/><path class="cls-2" d="M340.57,20.38V60.87h9.23v-16l12.37,16H373.9L360,44.13c5-1.57,8.29-5.64,8.29-11.73,0-7.95-5.69-12-13.2-12Zm9.23,18V27.74h1.08c3.49,0,7.66.25,7.66,5.3s-4.17,5.3-7.66,5.3Z"/><polygon class="cls-2" points="418.03 60.87 399.19 39.57 415.48 20.38 404.29 20.38 390.4 36.92 390.4 20.38 381.17 20.38 381.17 60.87 390.4 60.87 390.4 43.69 405.32 60.87 418.03 60.87"/><polygon class="cls-2" points="464.77 20.38 441.36 20.38 441.36 60.87 450.58 60.87 450.58 44.62 463.69 44.62 463.69 36.52 450.58 36.52 450.58 28.48 464.77 28.48 464.77 20.38"/><rect class="cls-3" x="476.86" y="20.38" width="9.23" height="8.1"/><path class="cls-4" d="M499.24,33.76v10c0,6.77-2.07,8.73-6.58,8.73s-6.58-2-6.58-8.73v-10h-9.22V46.49c0,10,5.49,15.11,15.8,15.11s15.8-5.1,15.8-15.11V33.76Z"/><rect class="cls-3" x="499.24" y="20.38" width="9.23" height="8.1"/><polygon class="cls-2" points="531.25 35.74 531.35 35.74 547.45 60.87 556.67 60.87 556.67 20.38 547.45 20.38 547.45 45.51 547.35 45.51 531.25 20.38 522.02 20.38 522.02 60.87 531.25 60.87 531.25 35.74"/><path class="cls-5" d="M325.71,31.74l-7.59,4.39a1.06,1.06,0,0,0-.5,1.24,10.81,10.81,0,0,1,0,6.5,1.08,1.08,0,0,0,.5,1.24l7.59,4.38a1.07,1.07,0,0,0,1.54-.52,21.62,21.62,0,0,0,0-16.71A1.09,1.09,0,0,0,325.71,31.74Z"/><path class="cls-6" d="M310.2,52l1,8.7a1.08,1.08,0,0,0,1.35.92,21.6,21.6,0,0,0,12.74-9,1.07,1.07,0,0,0-.37-1.52l-7.51-4.33A1.05,1.05,0,0,0,316,47a10.9,10.9,0,0,1-5.13,3.8A1.09,1.09,0,0,0,310.2,52Z"/><path class="cls-1" d="M317.44,34.52,325,30.19a1.09,1.09,0,0,0,.37-1.53,21.7,21.7,0,0,0-12.77-9,1.08,1.08,0,0,0-1.34.92l-1,8.7a1.08,1.08,0,0,0,.71,1.15,10.75,10.75,0,0,1,5.14,3.8A1.07,1.07,0,0,0,317.44,34.52Z"/><path class="cls-2" d="M307.32,51.43a10.81,10.81,0,0,1,0-21.61h.07a1.08,1.08,0,0,0,1.09-.95l1-8.62a1.07,1.07,0,0,0-1-1.2c-.39,0-.78,0-1.18,0a21.61,21.61,0,1,0,0,43.21c.41,0,.81,0,1.21,0a1.09,1.09,0,0,0,1-1.21l-1-8.61a1.09,1.09,0,0,0-1.1-1Z"/><path class="cls-2" d="M313.23,39.86,305,35.11a1.08,1.08,0,0,0-1.62.94v9.49a1.08,1.08,0,0,0,1.62.93l8.22-4.74A1.07,1.07,0,0,0,313.23,39.86Z"/></svg>