<svg id="Layer_1" data-name="Layer 1" xmlns="http://www.w3.org/2000/svg" viewBox="0 0 595.28 841.89"><defs><style>.cls-1{fill:#ef553e;}.cls-2{fill:#f89840;}.cls-3{fill:#ffe740;}</style></defs><path class="cls-1" d="M281.25,835.47C226.56,831.88,55.68,786.63,29.33,557.7c0,0,31.78,35.91,46.77,47.28,0,0-64.46-78.49-21-227.74,0,0,5.49,52,24.09,63.92,0,0-37.21-49.61,31-100.77s101.28-118.55,81.91-145.31c0,0,37.47,14.58,27,62S267,313.19,267.83,161.6c.46-89.27-37.08-148.17-37.08-148.17s139.4,44.74,159.5,196.39c0,0,15.53-53.9-.46-82.33,0,0,76.46,55.22,70.14,185.35s70.42,83.89,49.74,47.71c0,0,44.19,52.46,22.48,152.71,0,0,23.46-38.89,25.78-64.18C557.93,449.08,639.64,859,281.25,835.47Z"/><path class="cls-2" d="M325,836.44c-89.26,0-188.21-50.91-198.49-182s51.12-239,51.12-239-7.43,43.69,33.69,43.69-40.4-118.22,13.85-214.59c0,0-10,72,46.54,64.25S267.56,176,267.56,176s95.4,32.54,87.69,137.91,42.4,123.36,56.54,83.52,0-54,0-54,63,62.06,51.4,162.74c0,0,24.51-12.57,23.13-47.09C486.32,459.14,576.17,836.44,325,836.44Z"/><path class="cls-3" d="M324.57,831c-83.6,0-137-71.26-130.19-154.86S315,466.45,275.23,402c0,0,75.38,75.38,49.34,167.2s30.15,86.34,35.63,47.28-9.59-50-9.59-50,82.91,39.74,82.91,126.08S375.28,831,324.57,831Z"/><path class="cls-1" d="M78.22,296.9S43.91,257,96.81,204s38.6-88.7,38.6-88.7,35,67.2,1.76,105.8S83.94,274,78.22,296.9Z"/><path class="cls-1" d="M490,264s21.44-54.46-15.73-88-12.87-82.14-12.87-82.14,3.74,34.31,34.75,52.89S531.44,234,490,264Z"/></svg>